<svg width="386.3768310546875px" height="124.64000549316405px" xmlns="http://www.w3.org/2000/svg" viewBox="56.81158447265625 12.679997253417973 386.3768310546875 124.64000549316405" style="background: rgba(0, 0, 0, 0);" preserveAspectRatio="xMidYMid"><defs><filter id="editing-extrude-glow"><feFlood flood-color="#333333" result="flood-1"></feFlood><feMorphology operator="erode" radius="1" in="SourceAlpha" result="erode"></feMorphology><feComposite operator="in" in="flood-1" in2="erode" result="comp1"></feComposite><feConvolveMatrix order="3,3" divisor="1" in="comp1" result="convolve" kernelMatrix="0 0 0 1 1 1 0 0 0"></feConvolveMatrix><feOffset dx="-3" dy="0" in="convolve" result="extrude"></feOffset><feComposite operator="in" in="flood-1" in2="extrude" result="comp-extrude"></feComposite><feFlood flood-color="#000000" result="flood-2"></feFlood><feComposite operator="in" in="flood-2" in2="SourceAlpha" result="comp2"></feComposite><feMorphology operator="dilate" radius="1" in="comp2" result="dilate"></feMorphology><feOffset dx="-4.5" dy="0" in="dilate" result="offset"></feOffset><feGaussianBlur in="offset" stdDeviation="5.8" result="blur"></feGaussianBlur><feComponentTransfer in="blur" result="shadow"><feFuncA type="linear" slope="0.8" intercept="-0.2"></feFuncA></feComponentTransfer><feMerge><feMergeNode in="shadow"></feMergeNode><feMergeNode in="comp-extrude"></feMergeNode><feMergeNode in="SourceGraphic"></feMergeNode></feMerge></filter></defs><g filter="url(#editing-extrude-glow)"><g transform="translate(113.79209470748901, 97.14000129699707)"><path d="M29.95 0L29.95-19.71L12.10-19.71L12.10 0L4.48 0L4.48-43.33L12.10-43.33L12.10-25.28L29.95-25.28L29.95-43.33L37.57-43.33L37.57 0L29.95 0ZM63.87-43.90L63.87-43.90Q68.67-43.90 72.06-42.37L72.06-42.37L72.06-42.37Q75.46-40.83 77.66-38.02L77.66-38.02L77.66-38.02Q79.87-35.20 80.90-31.14L80.90-31.14L80.90-31.14Q81.92-27.07 81.92-22.02L81.92-22.02L81.92-22.02Q81.92-17.02 80.80-12.90L80.80-12.90L80.80-12.90Q79.68-8.77 77.34-5.82L77.34-5.82L77.34-5.82Q75.01-2.88 71.46-1.25L71.46-1.25L71.46-1.25Q67.90 0.38 63.04 0.38L63.04 0.38L63.04 0.38Q58.24 0.38 54.82-1.06L54.82-1.06L54.82-1.06Q51.39-2.50 49.18-5.28L49.18-5.28L49.18-5.28Q46.98-8.06 45.95-12.03L45.95-12.03L45.95-12.03Q44.93-16 44.93-21.12L44.93-21.12L44.93-21.12Q44.93-26.11 46.05-30.30L46.05-30.30L46.05-30.30Q47.17-34.50 49.50-37.54L49.50-37.54L49.50-37.54Q51.84-40.58 55.42-42.24L55.42-42.24L55.42-42.24Q59.01-43.90 63.87-43.90L63.87-43.90ZM62.98-38.02L62.98-38.02Q60.16-38.02 58.30-36.77L58.30-36.77L58.30-36.77Q56.45-35.52 55.30-33.34L55.30-33.34L55.30-33.34Q54.14-31.17 53.66-28.22L53.66-28.22L53.66-28.22Q53.18-25.28 53.18-21.82L53.18-21.82L53.18-21.82Q53.18-18.56 53.63-15.62L53.63-15.62L53.63-15.62Q54.08-12.67 55.26-10.43L55.26-10.43L55.26-10.43Q56.45-8.19 58.53-6.85L58.53-6.85L58.53-6.85Q60.61-5.50 63.94-5.50L63.94-5.50L63.94-5.50Q66.69-5.50 68.58-6.72L68.58-6.72L68.58-6.72Q70.46-7.94 71.62-10.05L71.62-10.05L71.62-10.05Q72.77-12.16 73.25-15.07L73.25-15.07L73.25-15.07Q73.73-17.98 73.73-21.38L73.73-21.38L73.73-21.38Q73.73-24.64 73.28-27.65L73.28-27.65L73.28-27.65Q72.83-30.66 71.65-32.96L71.65-32.96L71.65-32.96Q70.46-35.26 68.38-36.64L68.38-36.64L68.38-36.64Q66.30-38.02 62.98-38.02L62.98-38.02ZM88.64-43.33L96.19-43.33L96.19-16.51L96.19-16.51Q96.19-10.56 98.69-8.03L98.69-8.03L98.69-8.03Q101.18-5.50 105.47-5.50L105.47-5.50L105.47-5.50Q109.82-5.50 111.90-8.42L111.90-8.42L111.90-8.42Q113.98-11.33 113.98-16.51L113.98-16.51L113.98-43.33L121.60-43.33L121.60-15.94L121.60-15.94Q121.60-12.61 120.74-9.66L120.74-9.66L120.74-9.66Q119.87-6.72 117.89-4.48L117.89-4.48L117.89-4.48Q115.90-2.24 112.64-0.93L112.64-0.93L112.64-0.93Q109.38 0.38 104.64 0.38L104.64 0.38L104.64 0.38Q100.10 0.38 97.06-0.93L97.06-0.93L97.06-0.93Q94.02-2.24 92.13-4.48L92.13-4.48L92.13-4.48Q90.24-6.72 89.44-9.66L89.44-9.66L89.44-9.66Q88.64-12.61 88.64-15.94L88.64-15.94L88.64-43.33ZM155.71-20.67L155.52-43.33L163.14-43.33L163.14 0.06L156.80 0.06L142.21-22.72L142.21-22.72Q140.99-24.58 139.55-26.91L139.55-26.91L139.55-26.91Q138.11-29.25 136.83-31.23L136.83-31.23L136.83-31.23Q137.02-29.18 137.18-26.94L137.18-26.94L137.18-26.94Q137.34-24.70 137.34-22.66L137.34-22.66L137.54 0L129.92 0L129.92-43.46L135.87-43.46L150.91-20.93L150.91-20.93Q152.19-19.07 153.50-16.99L153.50-16.99L153.50-16.99Q154.82-14.91 156.10-12.99L156.10-12.99L156.10-12.99Q155.97-15.04 155.84-17.12L155.84-17.12L155.84-17.12Q155.71-19.20 155.71-20.67L155.71-20.67ZM168.26-43.33L198.46-43.33L197.50-37.57L186.75-37.57L186.75 0L179.20 0L179.20-37.57L168.26-37.57L168.26-43.33ZM203.65 0L203.65-43.33L229.38-43.33L229.38-37.57L211.26-37.57L211.26-25.47L226.18-25.47L225.22-19.65L211.26-19.65L211.26-5.76L230.34-5.76L230.34 0L203.65 0ZM236.48 0L236.48-43.33L236.48-43.33Q236.93-43.33 238.53-43.36L238.53-43.36L238.53-43.36Q240.13-43.39 242.11-43.39L242.11-43.39L242.11-43.39Q244.10-43.39 246.08-43.42L246.08-43.42L246.08-43.42Q248.06-43.46 249.34-43.46L249.34-43.46L249.34-43.46Q257.28-43.46 260.93-40.35L260.93-40.35L260.93-40.35Q264.58-37.25 264.58-31.62L264.58-31.62L264.58-31.62Q264.58-27.90 262.72-25.02L262.72-25.02L262.72-25.02Q260.86-22.14 256.64-20.86L256.64-20.86L256.64-20.86Q258.43-19.84 259.84-18.05L259.84-18.05L259.84-18.05Q261.25-16.26 262.59-13.66L262.59-13.66L262.59-13.66Q263.94-11.07 265.34-7.65L265.34-7.65L265.34-7.65Q266.75-4.22 268.61 0L268.61 0L260.35 0L260.35 0Q258.18-5.06 256.54-8.64L256.54-8.64L256.54-8.64Q254.91-12.22 253.38-14.46L253.38-14.46L253.38-14.46Q251.84-16.70 250.08-17.73L250.08-17.73L250.08-17.73Q248.32-18.75 245.95-18.75L245.95-18.75L244.10-18.75L244.10 0L236.48 0ZM244.10-38.02L244.10-24.32L249.02-24.32L249.02-24.32Q252.61-24.32 254.56-25.92L254.56-25.92L254.56-25.92Q256.51-27.52 256.51-30.66L256.51-30.66L256.51-30.66Q256.51-32.06 256.13-33.41L256.13-33.41L256.13-33.41Q255.74-34.75 254.82-35.78L254.82-35.78L254.82-35.78Q253.89-36.80 252.32-37.41L252.32-37.41L252.32-37.41Q250.75-38.02 248.38-38.02L248.38-38.02L244.10-38.02Z" fill="#eb6c6c"></path></g></g><style>text {
  font-size: 64px;
  font-family: Arial Black;
  dominant-baseline: central;
  text-anchor: middle;
}</style></svg>